# xmcd
#
# Track frame offsets: 
#        150
#        15200
#        30594
#        41297
#        52522
#        64726
#        76787
#        90950
#        104833
#        123376
#        133812
#        149027
#        164059
#        177687
#        191255
#        214737
#        230113
#        240963
#        257753
#        275454
#
# Disc length: 3879 seconds
#
# Revision: 2
# Processed by: cddbd v1.5.1PL2 Copyright (c) Steve Scherf et al.
# Submitted via: ExactAudioCopy v0.95b3
#
DISCID=110f2514
DTITLE=Various Artist - Viejitas Pero Bonitas
DYEAR=1988
DGENRE=Grupero
TTITLE0=Rigo Tovar - Lamento De Amor
TTITLE1=Juan Gabriel - Siempre En Mi Mente
TTITLE2=Carlos Barocela - Tu Nombre En La Arena
TTITLE3=Leo Dan - Sólo Una Vez 
TTITLE4=Los Brios - Tengo Miedo
TTITLE5=Leo Dan - Susana Llámame
TTITLE6=Campeche Show - Noveno Mandamiento
TTITLE7=Organización Genesis - Juguete Caro
TTITLE8=Los Tericolas - Luto En Mi Alma
TTITLE9=Generación 2000 - Tú Eres
TTITLE10=Los Pasteles Verdes - Esclavo Y Amo
TTITLE11=Rigo Tovar - No Son Palabrítas
TTITLE12=Los Strwcks - Quién
TTITLE13=Los Pasteles Verdes - Recuerdos De Una Noche
TTITLE14=Roberto Carlos - Detalles
TTITLE15=Piero - Mi Viejo
TTITLE16=Los Sleepers - Al Ritmo De La Lluvia
TTITLE17=José Luis Perales - Amada Mía
TTITLE18=Domenico Modugno - La Distancia Es Como El Viento
TTITLE19=Los Strwcks - Un Sueño
EXTD=
EXTT0=
EXTT1=
EXTT2=
EXTT3=
EXTT4=
EXTT5=
EXTT6=
EXTT7=
EXTT8=
EXTT9=
EXTT10=
EXTT11=
EXTT12=
EXTT13=
EXTT14=
EXTT15=
EXTT16=
EXTT17=
EXTT18=
EXTT19=
PLAYORDER=
